<?xml version="1.0" encoding="UTF-8" standalone="no"?>
<!-- Created with Inkscape (http://www.inkscape.org/) -->

<svg
   width="199.80917mm"
   height="199.80922mm"
   viewBox="0 0 199.80917 199.80922"
   version="1.1"
   id="svg1"
   xml:space="preserve"
   sodipodi:docname="icon_primeira_saida.svg"
   inkscape:version="1.3 (0e150ed6c4, 2023-07-21)"
   xmlns:inkscape="http://www.inkscape.org/namespaces/inkscape"
   xmlns:sodipodi="http://sodipodi.sourceforge.net/DTD/sodipodi-0.dtd"
   xmlns="http://www.w3.org/2000/svg"
   xmlns:svg="http://www.w3.org/2000/svg"><sodipodi:namedview
     id="namedview1"
     pagecolor="#ffffff"
     bordercolor="#000000"
     borderopacity="0.25"
     inkscape:showpageshadow="2"
     inkscape:pageopacity="0.0"
     inkscape:pagecheckerboard="0"
     inkscape:deskcolor="#d1d1d1"
     inkscape:document-units="mm"
     inkscape:zoom="0.53827909"
     inkscape:cx="307.46132"
     inkscape:cy="511.81628"
     inkscape:window-width="1920"
     inkscape:window-height="1009"
     inkscape:window-x="-8"
     inkscape:window-y="-8"
     inkscape:window-maximized="1"
     inkscape:current-layer="layer1" /><defs
     id="defs1" /><g
     inkscape:label="Camada 1"
     inkscape:groupmode="layer"
     id="layer1"
     transform="translate(683.05782,-437.10228)"><rect
       style="fill:none;stroke:none;stroke-width:0.190799;stroke-linecap:square;stroke-miterlimit:2.9;paint-order:markers fill stroke"
       id="rect571564"
       width="199.8092"
       height="199.8092"
       x="-683.05786"
       y="437.10229"
       ry="7.5305705"
       inkscape:export-filename="icon_primeira_saida.svg"
       inkscape:export-xdpi="96"
       inkscape:export-ydpi="96" /><g
       id="g571543"
       transform="matrix(1.221955,0,0,1.221955,-315.82146,245.93781)"
       style="fill:#000000"><path
         style="fill:#000000;fill-opacity:1"
         d="m -222.08826,294.98333 c -3.83576,-0.41794 -7.91102,-1.3173 -11.90625,-2.62756 -8.55779,-2.80657 -15.62002,-7.15803 -22.11205,-13.62453 -4.81054,-4.79162 -7.87961,-9.06727 -10.93958,-15.24036 -3.91097,-7.88989 -5.84212,-16.22161 -5.84212,-25.20513 0,-15.20357 5.49659,-28.949 15.87337,-39.69487 8.63716,-8.94437 18.57079,-14.30098 30.78597,-16.60102 4.24646,-0.79958 12.10371,-0.98035 16.77402,-0.38591 12.60074,1.60384 23.65149,7.0473 32.76764,16.14095 22.2627,22.20777 22.31091,58.51886 0.10733,80.83887 -8.4678,8.51221 -19.57794,14.18848 -31.36883,16.02663 -3.20606,0.49982 -11.0711,0.70725 -14.1395,0.37293 z m 10.18646,-8.5908 c 8.35568,-0.60432 18.18187,-4.5574 25.18154,-10.13057 8.68426,-6.91443 15.03684,-17.30098 17.26543,-28.22917 2.32925,-11.42182 0.51525,-23.36109 -5.07736,-33.41789 -5.86734,-10.55083 -15.51303,-18.63963 -26.66253,-22.35897 -12.09927,-4.03618 -24.68062,-3.22863 -36.10708,2.31757 -21.77275,10.5681 -32.33353,35.94071 -24.59845,59.09854 4.18308,12.52361 13.15929,22.66578 25.13125,28.39567 5.08781,2.43507 11.30114,4.07041 16.92518,4.45468 2.85207,0.19487 3.62742,0.18219 7.94202,-0.12986 z m -9.22476,-12.3151 c -10.08081,-1.39891 -19.2757,-7.15735 -24.92296,-15.60838 -3.03902,-4.54784 -4.77159,-8.91312 -5.71732,-14.40501 -0.45467,-2.64026 -0.52127,-3.84342 -0.39543,-7.14375 0.16285,-4.27123 0.56939,-6.61825 1.77407,-10.24205 2.95901,-8.90098 9.57184,-16.60808 17.81073,-20.75802 2.95057,-1.48621 7.01141,-2.84576 10.09234,-3.37889 3.05571,-0.52876 8.78955,-0.5308 12.03854,-0.004 12.89525,2.08977 24.12238,11.93735 28.15175,24.69258 1.14403,3.62149 1.57762,6.64528 1.57925,11.01358 0.001,2.71865 -0.14516,4.71579 -0.46409,6.3404 -2.90914,14.81899 -13.39376,25.7158 -27.90971,29.00696 -2.68084,0.60781 -9.25068,0.87354 -12.03717,0.48686 z m 11.78859,-7.63691 c 8.003,-2.17374 14.62564,-7.45992 18.36154,-14.65616 2.35134,-4.52923 3.284,-8.42936 3.284,-13.73268 0,-20.00042 -19.69019,-34.01497 -38.3687,-27.30902 -5.31886,1.90958 -9.88253,5.25555 -13.25872,9.72099 -1.9588,2.59075 -4.22287,7.17995 -4.98609,10.10664 -2.70054,10.35565 0.26069,21.10627 7.84036,28.46408 4.24619,4.1219 8.50345,6.43831 14.11274,7.67885 3.11129,0.68808 10.00972,0.54354 13.01487,-0.2727 z m -9.80895,-24.52772 c -1.22642,-0.85902 -1.35384,-1.70284 -1.35384,-8.9659 0,-5.48747 0.0748,-6.91321 0.39536,-7.53306 0.76369,-1.47681 2.19246,-1.96716 3.71308,-1.27433 1.31241,0.59798 1.44781,1.28477 1.44781,7.34369 v 5.56938 h 9.28077 9.28077 l 0.7734,0.7734 c 0.60655,0.60656 0.77339,1.01049 0.77339,1.87244 0,0.86195 -0.16684,1.26588 -0.77339,1.87243 l -0.7734,0.7734 h -11.07398 c -9.80978,0 -11.1443,-0.0493 -11.68997,-0.43145 z m 68.04363,48.82754 c -1.2751,-0.63117 -2.80063,-2.21426 -3.45394,-3.58427 -0.42276,-0.88657 -0.40721,-1.89395 0.28483,-18.44303 0.40261,-9.62789 0.92414,-22.26775 1.15895,-28.08858 l 0.42692,-10.58333 -1.33176,-1.3554 c -0.88377,-0.89946 -1.52426,-1.86989 -1.90402,-2.88489 -0.57176,-1.52819 -0.57211,-1.54432 -0.40523,-18.75294 0.10108,-10.42282 0.27338,-17.57193 0.43637,-18.10603 0.3541,-1.16033 1.63512,-2.594 2.8897,-3.23404 0.84809,-0.43266 1.56467,-0.51358 4.54811,-0.51358 3.09484,0 3.59662,0.061 3.97929,0.48386 0.3947,0.43613 0.4381,1.74735 0.44008,13.29531 0.002,13.97465 0.30353,28.45256 0.92959,44.69375 0.47392,12.29429 1.64763,38.8961 1.81175,41.06272 0.0866,1.14399 -0.0131,1.76471 -0.41354,2.57415 -1.5904,3.21446 -6.33798,4.95055 -9.3971,3.4363 z m -137.06527,-1.51623 c -2.52451,-0.90264 -3.50593,-2.377 -3.50376,-5.26359 7.4e-4,-0.98806 0.59545,-15.13148 1.32156,-31.42981 0.72612,-16.29833 1.32054,-30.40724 1.32094,-31.35312 l 7.2e-4,-1.7198 -1.45359,-0.75952 c -2.08194,-1.08784 -3.62086,-2.54424 -4.55946,-4.31494 -1.5169,-2.86172 -1.50977,-2.70312 -0.69789,-15.50553 0.65078,-10.26212 0.79617,-11.71086 1.23074,-12.26333 0.66034,-0.83948 2.10546,-0.85492 2.91696,-0.0311 l 0.58644,0.59531 -0.35264,9.08689 c -0.19395,4.99778 -0.2884,9.25427 -0.2099,9.45885 0.14636,0.3814 1.20611,0.53065 1.23216,0.17353 0.008,-0.10914 0.11048,-4.41662 0.22782,-9.57218 0.21119,-9.27877 0.21938,-9.37861 0.80859,-9.85572 0.7942,-0.64311 2.15444,-0.61013 3.02328,0.0733 l 0.70595,0.5553 -0.18321,9.49887 -0.18322,9.49887 h 0.70358 0.70357 v -9.525 c 0,-9.17223 0.0196,-9.5446 0.52916,-10.05417 1.11256,-1.11256 3.42151,-0.36036 3.45168,1.12448 0.0917,4.51306 0.75228,17.92852 0.89408,18.15796 0.1038,0.16795 0.31535,0.2271 0.47011,0.13145 0.19617,-0.12124 0.22254,-3.01176 0.0871,-9.54487 -0.18096,-8.72724 -0.16238,-9.40625 0.2705,-9.88458 0.63476,-0.70139 2.32034,-0.69273 3.02864,0.0156 0.29104,0.29104 0.52916,0.8517 0.52916,1.24592 0,0.39421 0.24649,5.9124 0.54775,12.26265 l 0.54775,11.5459 -0.66646,1.64017 c -1.16477,2.86651 -2.65205,4.55356 -5.12788,5.81663 l -1.11073,0.56666 0.15363,3.23864 c 0.80137,16.89332 2.34951,61.86958 2.15443,62.59017 -0.83334,3.07814 -5.79992,5.08654 -9.39754,3.8002 z"
         id="path571544" /></g></g></svg>
