<?xml version="1.0" encoding="UTF-8" standalone="no"?>
<!-- Created with Inkscape (http://www.inkscape.org/) -->

<svg
   width="199.8092mm"
   height="199.80922mm"
   viewBox="0 0 199.8092 199.80922"
   version="1.1"
   id="svg1"
   xml:space="preserve"
   sodipodi:docname="icon_segunda_saida.svg"
   inkscape:version="1.3 (0e150ed6c4, 2023-07-21)"
   xmlns:inkscape="http://www.inkscape.org/namespaces/inkscape"
   xmlns:sodipodi="http://sodipodi.sourceforge.net/DTD/sodipodi-0.dtd"
   xmlns="http://www.w3.org/2000/svg"
   xmlns:svg="http://www.w3.org/2000/svg"><sodipodi:namedview
     id="namedview1"
     pagecolor="#ffffff"
     bordercolor="#000000"
     borderopacity="0.25"
     inkscape:showpageshadow="2"
     inkscape:pageopacity="0.0"
     inkscape:pagecheckerboard="0"
     inkscape:deskcolor="#d1d1d1"
     inkscape:document-units="mm"
     inkscape:zoom="0.53827909"
     inkscape:cx="333.47013"
     inkscape:cy="444.93647"
     inkscape:window-width="1920"
     inkscape:window-height="1009"
     inkscape:window-x="-8"
     inkscape:window-y="-8"
     inkscape:window-maximized="1"
     inkscape:current-layer="layer1" /><defs
     id="defs1" /><g
     inkscape:label="Camada 1"
     inkscape:groupmode="layer"
     id="layer1"
     transform="translate(734.07387,-506.28011)"><g
       id="g571557"
       transform="matrix(1.2158679,0,0,1.2158679,-1054.6131,601.11774)"
       style="fill:#000000"><path
         style="fill:#000000;fill-opacity:1"
         d="m 291.7267,61.095062 c -9.30776,-0.186554 -9.53835,-0.219485 -12.54855,-1.792061 -3.50688,-1.832053 -6.25339,-5.012369 -7.80636,-9.039365 l -0.81175,-2.104935 V 4.2369519 -39.684798 l 0.79843,-2.187753 c 1.91771,-5.254639 5.57448,-8.686193 11.22437,-10.533066 l 1.83635,-0.600277 34.67615,0.162849 c 21.99503,0.103294 35.15995,0.262074 35.99907,0.434179 4.1125,0.843476 8.5996,4.540626 10.73088,8.841724 l 1.16151,2.344039 0.18483,6.516222 c 0.10166,3.583922 0.19407,8.216132 0.20537,10.293799 l 0.0205,3.777577 -3.77032,-0.07341 -3.77031,-0.07341 -0.13229,-9.128124 -0.13229,-9.128125 -0.72758,-1.380219 c -0.90229,-1.711632 -2.18047,-3.010276 -3.97686,-4.040522 l -1.38098,-0.792001 -34.47077,-0.0025 -34.47078,-0.0025 -1.26437,0.640705 c -1.73171,0.877525 -4.45077,3.818435 -4.72458,5.110059 -0.11614,0.547861 -0.21116,20.403298 -0.21116,44.1231926 V 47.744756 l 0.70891,1.205843 c 0.85413,1.452853 2.68199,3.186304 4.14903,3.934735 1.07022,0.545984 1.19943,0.547963 35.779,0.547963 h 34.70489 l 1.35512,-0.777555 c 1.77701,-1.01963 3.16958,-2.481612 3.92176,-4.117236 0.59147,-1.286172 0.61056,-1.574619 0.68743,-10.384896 l 0.0791,-9.061979 h 3.82354 3.82355 l -0.0264,4.167188 c -0.0145,2.291953 -0.10613,6.905624 -0.20358,10.252603 l -0.17718,6.085417 -1.00789,2.024314 c -2.01856,4.054214 -5.56011,7.304205 -9.47042,8.690759 -1.59231,0.564614 -2.24796,0.607684 -12.26557,0.805733 -12.19615,0.24112 -39.95837,0.229182 -52.51979,-0.02258 z m 95.62341,-25.624577 c -1.78297,-1.087242 -2.55365,-2.965781 -1.87856,-4.578978 0.21547,-0.51488 4.85328,-5.414767 11.29023,-11.928228 C 402.77027,12.883362 407.60065,7.8232062 407.49595,7.7184876 407.39125,7.613769 391.62901,7.4981617 372.46875,7.4615824 320.01024,7.3614327 318.22172,7.3396571 317.19733,6.7886363 316.08513,6.1903846 315.5392,5.0946189 315.5392,3.4604881 c 0,-1.5557313 0.82747,-2.75204281 2.19147,-3.16832106 1.29764,-0.39602311 17.77256,-0.56411977 55.55384,-0.56682597 18.88133,-0.001352 34.32969,-0.10046776 34.32969,-0.22025628 0,-0.11978853 -4.77858,-5.02820759 -10.61907,-10.90759779 -5.84049,-5.87939 -10.91599,-11.138458 -11.27887,-11.686817 -0.54607,-0.825167 -0.62953,-1.186318 -0.48418,-2.095278 0.22271,-1.392726 0.95572,-2.425628 2.11013,-2.973431 1.19909,-0.569007 2.22693,-0.540736 3.26087,0.08969 0.99099,0.604236 24.44612,23.8002985 27.89553,27.58741259 l 2.34476,2.57430941 v 1.6151023 1.6151023 l -7.24593,7.4522544 c -3.98525,4.09874 -10.74426,10.914439 -15.02001,15.145997 -6.20681,6.142663 -7.95312,7.729549 -8.66215,7.871354 -1.32878,0.265756 -1.6707,0.222743 -2.56517,-0.322701 z"
         id="path571558" /></g><rect
       style="fill:none;stroke:none;stroke-width:0.190799;stroke-linecap:square;stroke-miterlimit:2.9;paint-order:markers fill stroke"
       id="rect571564"
       width="199.8092"
       height="199.8092"
       x="-734.07385"
       y="506.28012"
       ry="7.5305705"
       inkscape:export-filename="icon_primeira_entrada.svg"
       inkscape:export-xdpi="96"
       inkscape:export-ydpi="96" /></g></svg>
