<?xml version="1.0" encoding="UTF-8" standalone="no"?>
<!-- Created with Inkscape (http://www.inkscape.org/) -->

<svg
   width="199.8092mm"
   height="199.80922mm"
   viewBox="0 0 199.8092 199.80922"
   version="1.1"
   id="svg1"
   xml:space="preserve"
   sodipodi:docname="icon_primeira_entrada.svg"
   inkscape:version="1.3 (0e150ed6c4, 2023-07-21)"
   xmlns:inkscape="http://www.inkscape.org/namespaces/inkscape"
   xmlns:sodipodi="http://sodipodi.sourceforge.net/DTD/sodipodi-0.dtd"
   xmlns="http://www.w3.org/2000/svg"
   xmlns:svg="http://www.w3.org/2000/svg"><sodipodi:namedview
     id="namedview1"
     pagecolor="#ffffff"
     bordercolor="#000000"
     borderopacity="0.25"
     inkscape:showpageshadow="2"
     inkscape:pageopacity="0.0"
     inkscape:pagecheckerboard="0"
     inkscape:deskcolor="#d1d1d1"
     inkscape:document-units="mm"
     inkscape:zoom="0.53827909"
     inkscape:cx="476.5186"
     inkscape:cy="688.30465"
     inkscape:window-width="1920"
     inkscape:window-height="1009"
     inkscape:window-x="-8"
     inkscape:window-y="-8"
     inkscape:window-maximized="1"
     inkscape:current-layer="layer1" /><defs
     id="defs1" /><g
     inkscape:label="Camada 1"
     inkscape:groupmode="layer"
     id="layer1"
     transform="translate(734.07387,-506.28011)"><g
       id="g571537"
       transform="matrix(1.3989235,0,0,1.3989235,-98.983506,656.52953)"
       style="fill:#000000"><path
         style="fill:#000000;fill-opacity:1"
         d="m -377.73405,21.097265 c 0.84195,-0.05266 2.15148,-0.05217 2.91005,0.0011 0.75858,0.05326 0.0697,0.09634 -1.53082,0.09574 -1.60053,-5.96e-4 -2.22118,-0.04417 -1.37923,-0.09683 z m 22.47711,0.0013 c 0.69114,-0.0545 1.82209,-0.0545 2.51323,0 0.69114,0.0545 0.12566,0.09909 -1.25661,0.09909 -1.38228,0 -1.94776,-0.04459 -1.25662,-0.09909 z M -414.25641,5.420037 c 0,-0.5092593 0.0544,-0.7175926 0.12099,-0.462963 0.0665,0.2546297 0.0665,0.6712963 0,0.925926 -0.0666,0.2546296 -0.12099,0.046296 -0.12099,-0.462963 z m 88.90679,-13.4920635 c 0,-0.8002645 0.0496,-1.1276455 0.11021,-0.7275132 0.0606,0.4001323 0.0606,1.0548942 0,1.4550264 -0.0606,0.4001323 -0.11021,0.072751 -0.11021,-0.7275132 z m -41.08457,-1.9346315 c 0,-0.04553 0.38691,-0.432434 0.85979,-0.859789 l 0.85979,-0.777008 -0.77701,0.859788 c -0.72428,0.8014435 -0.94257,0.9813896 -0.94257,0.777009 z m 20.2381,-20.287591 c 0.26335,-0.291005 0.53835,-0.5291 0.6111,-0.5291 0.0727,0 -0.0832,0.238095 -0.34655,0.5291 -0.26336,0.291006 -0.53836,0.529101 -0.61111,0.529101 -0.0728,0 0.0832,-0.238095 0.34656,-0.529101 z m -10.71429,-0.364432 c 0,-0.05494 0.20834,-0.263269 0.46297,-0.462963 0.41959,-0.329067 0.42894,-0.319709 0.0999,0.09988 -0.3456,0.440674 -0.56285,0.580815 -0.56285,0.363081 z m -4.16666,-1.412355 c 0.40013,-0.06061 1.05489,-0.06061 1.45502,0 0.40013,0.06061 0.0728,0.110209 -0.72751,0.110209 -0.80027,0 -1.12765,-0.04959 -0.72751,-0.110209 z m 0.92592,-8.198274 c 0.32738,-0.06306 0.8631,-0.06306 1.19048,0 0.32738,0.06306 0.0595,0.114648 -0.59524,0.114648 -0.65476,0 -0.92262,-0.05159 -0.59524,-0.114648 z m 3.98479,0.006 c 0.19097,-0.07642 0.41915,-0.06702 0.50705,0.02088 0.0879,0.08791 -0.0683,0.150434 -0.34722,0.138947 -0.30818,-0.01269 -0.37087,-0.07538 -0.15983,-0.159832 z m -0.51324,-1.075896 c -0.32907,-0.419592 -0.31971,-0.428949 0.0999,-0.09988 0.44067,0.345601 0.58081,0.562846 0.36308,0.562846 -0.0549,0 -0.26327,-0.208334 -0.46296,-0.462963 z m 10.31746,-0.793651 c -0.32907,-0.419591 -0.31971,-0.428949 0.0999,-0.09988 0.25463,0.199694 0.46296,0.408027 0.46296,0.462963 0,0.217733 -0.21724,0.07759 -0.56284,-0.363081 z m -65.90541,-18.781086 c 1.05489,-0.05022 2.78108,-0.05022 3.83598,0 1.05489,0.05021 0.1918,0.0913 -1.91799,0.0913 -2.10979,0 -2.97288,-0.04109 -1.91799,-0.0913 z m 86.9179,-3.242724 c 0,-0.800264 0.0496,-1.127645 0.11021,-0.727513 0.0606,0.400132 0.0606,1.054894 0,1.455027 -0.0606,0.400132 -0.11021,0.07275 -0.11021,-0.727514 z m -88.91659,-11.243386 c 0.005,-0.436508 0.0647,-0.583052 0.13176,-0.325653 0.0671,0.257399 0.0627,0.614542 -0.01,0.793651 -0.0725,0.179109 -0.12734,-0.03149 -0.12195,-0.467998 z m 15.77184,-17.77331 c 0.19097,-0.07642 0.41914,-0.06702 0.50705,0.02088 0.0879,0.08791 -0.0683,0.150434 -0.34722,0.138947 -0.30819,-0.01269 -0.37087,-0.07538 -0.15983,-0.159832 z"
         id="path571543" /><path
         style="fill:#000000;fill-opacity:1"
         d="m -371.79133,21.096623 c 1.05489,-0.05022 2.78108,-0.05022 3.83598,0 1.05489,0.05021 0.1918,0.0913 -1.91799,0.0913 -2.10979,0 -2.97288,-0.04108 -1.91799,-0.0913 z m 8.87542,-7.35e-4 c 1.2803,-0.0486 3.30411,-0.04835 4.49736,5.53e-4 1.19325,0.0489 0.14574,0.08867 -2.32781,0.08836 -2.47354,-3.04e-4 -3.44984,-0.04032 -2.16955,-0.08892 z m -51.3405,-17.2631526 c 0,-0.5092592 0.0544,-0.7175926 0.12099,-0.4629629 0.0665,0.2546296 0.0665,0.6712962 0,0.9259259 -0.0666,0.2546296 -0.12099,0.046296 -0.12099,-0.462963 z m 88.88889,-9.7883598 c 0,-0.5092592 0.0544,-0.7175926 0.12098,-0.4629629 0.0666,0.2546296 0.0666,0.6712963 0,0.9259259 -0.0665,0.2546296 -0.12098,0.046296 -0.12098,-0.462963 z m -81.20264,-4.1005286 c 0.002,-0.727514 0.0534,-0.993734 0.11417,-0.591601 0.0608,0.402133 0.0592,0.9973709 -0.004,1.3227513 -0.0628,0.3253803 -0.11255,-0.00364 -0.11056,-0.7311503 z m 42.25237,-2.116403 c 0.34174,-0.363756 0.68086,-0.661375 0.75361,-0.661375 0.0728,0 -0.14732,0.297619 -0.48905,0.661375 -0.34174,0.363757 -0.68086,0.661376 -0.75361,0.661376 -0.0727,0 0.14732,-0.297619 0.48905,-0.661376 z m 16.13757,-16.088071 c 0,-0.04553 0.38691,-0.432434 0.85979,-0.859788 l 0.85979,-0.777008 -0.77701,0.859788 c -0.72428,0.801443 -0.94257,0.981389 -0.94257,0.777008 z m -10.51084,-3.804254 c 0.2574,-0.06708 0.61454,-0.06266 0.79365,0.0098 0.17911,0.07247 -0.0315,0.127346 -0.46799,0.121955 -0.43651,-0.0054 -0.58306,-0.06468 -0.32566,-0.131757 z m -83.18956,-0.261938 c 0.19098,-0.07642 0.41915,-0.06702 0.50706,0.02089 0.0879,0.08791 -0.0683,0.150434 -0.34722,0.138947 -0.30819,-0.01269 -0.37088,-0.07538 -0.15984,-0.159833 z m 0.24802,-7.666446 c 0.18188,-0.07339 0.4795,-0.07339 0.66138,0 0.18187,0.07339 0.0331,0.133436 -0.33069,0.133436 -0.36376,0 -0.51257,-0.06005 -0.33069,-0.133436 z m 83.33333,-0.26455 c 0.18188,-0.07339 0.4795,-0.07339 0.66138,0 0.18188,0.07339 0.0331,0.133435 -0.33069,0.133435 -0.36376,0 -0.51256,-0.06005 -0.33069,-0.133435 z m 10.63391,-3.197809 -0.91168,-0.992064 0.99206,0.911684 c 0.92339,0.848576 1.1137,1.072443 0.91168,1.072443 -0.0442,0 -0.49063,-0.446428 -0.99206,-0.992063 z m -27.53273,-16.666667 c -0.32907,-0.419591 -0.31971,-0.428949 0.0999,-0.09988 0.25463,0.199694 0.46296,0.408027 0.46296,0.462963 0,0.217733 -0.21724,0.07759 -0.56284,-0.363081 z m -31.38636,-1.653439 c 0,-0.509259 0.0544,-0.717593 0.12098,-0.462963 0.0665,0.254629 0.0665,0.671296 0,0.925926 -0.0665,0.254629 -0.12098,0.0463 -0.12098,-0.462963 z m 81.21693,-4.497355 c 0,-0.509259 0.0544,-0.717592 0.12098,-0.462963 0.0666,0.25463 0.0666,0.671297 0,0.925926 -0.0665,0.25463 -0.12098,0.0463 -0.12098,-0.462963 z m -88.89869,-7.804232 c 0.005,-0.436508 0.0647,-0.583052 0.13176,-0.325653 0.0671,0.257398 0.0627,0.614541 -0.01,0.79365 -0.0725,0.179109 -0.12734,-0.03149 -0.12195,-0.467997 z m 16.56549,-19.096062 c 0.19097,-0.07642 0.41915,-0.06702 0.50705,0.02088 0.0879,0.08791 -0.0683,0.150434 -0.34722,0.138947 -0.30819,-0.01269 -0.37087,-0.07538 -0.15983,-0.159832 z"
         id="path571542" /><path
         style="fill:#000000;fill-opacity:1"
         d="m -365.97122,21.117846 c 0.18187,-0.07339 0.47949,-0.07339 0.66137,0 0.18188,0.07339 0.0331,0.133436 -0.33069,0.133436 -0.36375,0 -0.51256,-0.06005 -0.33068,-0.133436 z m -31.74295,-0.276449 c 0.32908,-0.06328 0.80527,-0.06088 1.0582,0.0053 0.25293,0.06621 -0.0163,0.117989 -0.59832,0.115052 -0.58201,-0.0029 -0.78896,-0.05711 -0.45988,-0.12039 z m 63.62629,0.0038 c 0.2574,-0.06708 0.61454,-0.06266 0.79365,0.0098 0.17911,0.07247 -0.0315,0.127346 -0.468,0.121955 -0.43651,-0.0054 -0.58305,-0.06468 -0.32565,-0.131757 z m -80.1431,-19.5256641 c 10e-4,-1.01851852 0.049,-1.402768 0.10626,-0.85388774 0.0573,0.54888024 0.0563,1.38221354 -0.002,1.85185184 -0.0584,0.4696383 -0.1053,0.020554 -0.10413,-0.9979641 z m 7.69589,-5.1587302 c 0,-2.8373015 0.0389,-3.9980158 0.0865,-2.579365 0.0476,1.4186508 0.0476,3.7400793 0,5.1587301 -0.0476,1.41865082 -0.0865,0.2579365 -0.0865,-2.5793651 z m 81.18186,-0.1322751 c 0.002,-0.7275132 0.0534,-0.9937335 0.11417,-0.5916006 0.0608,0.4021329 0.0592,0.997371 -0.004,1.3227513 -0.0628,0.3253804 -0.11255,-0.00364 -0.11056,-0.7311507 z m -36.98043,-10.1851856 c 0.71658,-0.727513 1.36239,-1.322751 1.43514,-1.322751 0.0728,0 -0.45401,0.595238 -1.17059,1.322751 -0.71657,0.727514 -1.36238,1.322752 -1.43513,1.322752 -0.0728,0 0.45401,-0.595238 1.17058,-1.322752 z m 12.96296,-12.962963 c 0.56832,-0.58201 1.09283,-1.058201 1.16559,-1.058201 0.0727,0 -0.33272,0.476191 -0.90103,1.058201 -0.56832,0.582011 -1.09283,1.058202 -1.16559,1.058202 -0.0727,0 0.33272,-0.476191 0.90103,-1.058202 z m -8.00264,-4.944266 c 0.25463,-0.06654 0.6713,-0.06654 0.92593,0 0.25462,0.06654 0.0463,0.120985 -0.46297,0.120985 -0.50926,0 -0.71759,-0.05444 -0.46296,-0.120985 z m -83.46561,-0.26889 c 0.32738,-0.06306 0.8631,-0.06306 1.19048,0 0.32738,0.06306 0.0595,0.114647 -0.59524,0.114647 -0.65476,0 -0.92262,-0.05159 -0.59524,-0.114647 z m 0.5291,-7.671958 c 0.32738,-0.06306 0.8631,-0.06306 1.19048,0 0.32738,0.06306 0.0595,0.114648 -0.59524,0.114648 -0.65476,0 -0.92262,-0.05159 -0.59524,-0.114648 z m 83.06878,-0.253055 c 0.18188,-0.07339 0.4795,-0.07339 0.66138,0 0.18188,0.07339 0.0331,0.133435 -0.33069,0.133435 -0.36375,0 -0.51256,-0.06005 -0.33069,-0.133435 z m 7.72386,-5.049661 -0.91169,-0.992064 0.99207,0.911685 c 0.54563,0.501426 0.99206,0.947855 0.99206,0.992063 0,0.202016 -0.22387,0.01171 -1.07244,-0.911684 z m -24.74635,-13.888889 -0.50396,-0.595238 0.59524,0.503965 c 0.55937,0.473602 0.71567,0.686511 0.50396,0.686511 -0.0502,0 -0.31805,-0.267857 -0.59524,-0.595238 z m -32.27579,-7.34127 c 0,-2.255291 0.0406,-3.17791 0.0902,-2.050265 0.0496,1.127646 0.0496,2.972884 0,4.10053 -0.0496,1.127645 -0.0902,0.205026 -0.0902,-2.050265 z m 35.57406,-0.198413 c -0.32906,-0.419591 -0.31971,-0.428948 0.0999,-0.09988 0.44067,0.3456 0.58081,0.562845 0.36308,0.562845 -0.0549,0 -0.26327,-0.208333 -0.46297,-0.462963 z m 45.61206,-1.521164 c 0.002,-0.727513 0.0534,-0.993733 0.11417,-0.5916 0.0608,0.402133 0.0592,0.997371 -0.004,1.322751 -0.0628,0.32538 -0.11255,-0.0036 -0.11056,-0.731151 z m -88.88889,-3.968254 c 0.002,-0.727513 0.0534,-0.993733 0.11417,-0.5916 0.0608,0.402133 0.0592,0.997371 -0.004,1.322751 -0.0628,0.32538 -0.11255,-0.0036 -0.11056,-0.731151 z m 17.85235,-20.958923 c 0.47549,-0.05888 1.18978,-0.05766 1.5873,0.0027 0.39753,0.06036 0.008,0.108537 -0.86452,0.107053 -0.87302,-0.0015 -1.19827,-0.05087 -0.72278,-0.109753 z"
         id="path571541" /><path
         style="fill:#000000;fill-opacity:1"
         d="m -395.8654,20.841801 c 0.32738,-0.06306 0.86309,-0.06306 1.19047,0 0.32738,0.06306 0.0595,0.114648 -0.59524,0.114648 -0.65476,0 -0.92262,-0.05159 -0.59523,-0.114648 z m 59.78836,0 c 0.32738,-0.06306 0.86309,-0.06306 1.19047,0 0.32738,0.06306 0.0595,0.114648 -0.59524,0.114648 -0.65476,0 -0.92262,-0.05159 -0.59523,-0.114648 z m 18.71386,-56.956156 c 0,-24.371693 0.0311,-34.341931 0.0692,-22.156084 0.038,12.185846 0.038,32.126323 0,44.312169 -0.038,12.1858467 -0.0692,2.215609 -0.0692,-22.156085 z m -89.21059,38.3597888 c 0,-0.6547619 0.0516,-0.922619 0.11464,-0.5952381 0.0631,0.327381 0.0631,0.8630953 0,1.1904762 -0.063,0.327381 -0.11464,0.059524 -0.11464,-0.5952381 z m 81.22685,-3.5714285 c 0.001,-0.8730159 0.0509,-1.1982648 0.10975,-0.7227754 0.0589,0.4754894 0.0577,1.18977512 -0.003,1.58730157 -0.0604,0.39752646 -0.10854,0.00849 -0.10705,-0.86452617 z m -88.88017,-1.0582011 c 9.6e-4,-1.1640212 0.0475,-1.6073029 0.10335,-0.9850706 0.0559,0.6222323 0.0551,1.5746132 -0.002,2.1164021 -0.0568,0.54178883 -0.10257,0.03269 -0.1016,-1.1313315 z m 42.76645,-2.8776601 c 0,-0.054935 0.20833,-0.2632687 0.46296,-0.462963 0.41959,-0.3290663 0.42895,-0.3197091 0.0999,0.099882 -0.3456,0.440674 -0.56284,0.5808145 -0.56284,0.3630806 z m 15.74074,-15.5085831 c 2.90732,-2.910053 5.34557,-5.291005 5.41832,-5.291005 0.0727,0 -2.24645,2.380952 -5.15377,5.291005 -2.90733,2.910053 -5.34557,5.291005 -5.41832,5.291005 -0.0727,0 2.24644,-2.380952 5.15377,-5.291005 z m -82.209,-11.570699 c 0.76389,-0.05344 2.01389,-0.05344 2.77778,0 0.76389,0.05344 0.13889,0.09716 -1.38889,0.09716 -1.52778,0 -2.15278,-0.04372 -1.38889,-0.09716 z m -9.945,-3.773217 c 0,-0.363756 0.06,-0.512566 0.13344,-0.330687 0.0734,0.181878 0.0734,0.479497 0,0.661375 -0.0734,0.181879 -0.13344,0.03307 -0.13344,-0.330688 z m 9.81273,-3.893189 c 0.40013,-0.06061 1.05489,-0.06061 1.45503,0 0.40013,0.06062 0.0727,0.11021 -0.72752,0.11021 -0.80026,0 -1.12764,-0.04959 -0.72751,-0.11021 z m 3.31387,-0.0046 c 0.62223,-0.05589 1.57461,-0.0551 2.1164,0.0017 0.54179,0.05685 0.0327,0.10257 -1.13133,0.101609 -1.16402,-9.61e-4 -1.6073,-0.04747 -0.98507,-0.103356 z m 83.12793,-7.345636 c -0.6426,-0.654762 -1.10884,-1.190476 -1.03609,-1.190476 0.0727,0 0.65804,0.535714 1.30064,1.190476 0.6426,0.654762 1.10884,1.190476 1.03609,1.190476 -0.0727,0 -0.65804,-0.535714 -1.30064,-1.190476 z m -21.58598,-10.780423 -0.50397,-0.595238 0.59524,0.503965 c 0.32738,0.277181 0.59524,0.545038 0.59524,0.595238 0,0.211707 -0.21291,0.05541 -0.68651,-0.503965 z m 3.31199,-7.539683 -0.64136,-0.727513 0.72752,0.641353 c 0.67997,0.599441 0.84883,0.813674 0.64135,0.813674 -0.0474,0 -0.37477,-0.327381 -0.72751,-0.727514 z m -7.38739,-1.224221 c 0,-0.05494 0.20834,-0.263268 0.46296,-0.462963 0.4196,-0.329066 0.42895,-0.319709 0.0999,0.09988 -0.3456,0.440674 -0.56285,0.580814 -0.56285,0.36308 z m -36.94809,-2.28107 c 0,-1.091269 0.0467,-1.537698 0.10377,-0.992063 0.0571,0.545635 0.0571,1.438492 0,1.984127 -0.0571,0.545635 -0.10377,0.09921 -0.10377,-0.992064 z m 88.88192,-1.719576 c 0.001,-0.873016 0.0509,-1.198265 0.10975,-0.722776 0.0589,0.47549 0.0577,1.189775 -0.003,1.587302 -0.0604,0.397526 -0.10854,0.0085 -0.10705,-0.864526 z m -81.205,-1.851852 c -8.1e-4,-1.309524 0.0439,-1.878592 0.0994,-1.264596 0.0555,0.613996 0.0561,1.685424 10e-4,2.380952 -0.0547,0.695528 -0.10007,0.193168 -0.10087,-1.116356 z m 2.28704,-10.020517 c 0,-0.05494 0.20834,-0.263269 0.46297,-0.462963 0.41959,-0.329067 0.42895,-0.319709 0.0999,0.09988 -0.3456,0.440674 -0.56285,0.580814 -0.56285,0.363081 z m 11.4418,-10.413078 c 0.83664,-0.0525 2.20569,-0.0525 3.04233,0 0.83664,0.0525 0.15212,0.09545 -1.52116,0.09545 -1.67328,0 -2.35781,-0.04295 -1.52117,-0.09545 z"
         id="path571540" /><path
         style="fill:#000000;fill-opacity:1"
         d="m -393.749,20.841801 c 0.32738,-0.06306 0.86309,-0.06306 1.19047,0 0.32739,0.06306 0.0595,0.114648 -0.59523,0.114648 -0.65477,0 -0.92262,-0.05159 -0.59524,-0.114648 z m 55.55555,0 c 0.32738,-0.06306 0.8631,-0.06306 1.19048,0 0.32738,0.06306 0.0595,0.114648 -0.59524,0.114648 -0.65476,0 -0.92262,-0.05159 -0.59524,-0.114648 z m -68.4008,-16.8767905 c 0.005,-0.4365079 0.0647,-0.5830517 0.13175,-0.3256529 0.0671,0.2573988 0.0627,0.6145417 -0.01,0.7936508 -0.0725,0.1791091 -0.12735,-0.03149 -0.12195,-0.4679979 z m 81.25003,-2.2486772 c 0,-0.9457672 0.048,-1.33267196 0.1067,-0.85978836 0.0587,0.47288356 0.0587,1.24669316 0,1.71957676 -0.0587,0.4728836 -0.1067,0.085979 -0.1067,-0.8597884 z m -88.88113,-8.2010582 c 0,-1.2367725 0.0456,-1.7427249 0.10127,-1.1243386 0.0557,0.6183862 0.0557,1.630291 0,2.2486772 -0.0557,0.6183863 -0.10127,0.1124339 -0.10127,-1.1243386 z m 43.95518,0 c 0.26336,-0.2910053 0.53836,-0.5291005 0.61111,-0.5291005 0.0727,0 -0.0832,0.2380952 -0.34656,0.5291005 -0.26335,0.2910053 -0.53835,0.5291005 -0.6111,0.5291005 -0.0727,0 0.0832,-0.2380952 0.34655,-0.5291005 z m -61.56151,-25.8584011 c 1.20731,-0.04913 3.11207,-0.04886 4.23281,6.09e-4 1.12073,0.04947 0.13294,0.08966 -2.19511,0.08933 -2.32804,-3.35e-4 -3.245,-0.04081 -2.0377,-0.08994 z m 88.37962,-6.615144 c -0.32907,-0.419591 -0.31971,-0.428949 0.0999,-0.09988 0.44068,0.3456 0.58082,0.562845 0.36308,0.562845 -0.0549,0 -0.26326,-0.208333 -0.46296,-0.462963 z m -84.54002,-1.057727 c 2.15507,-0.04452 5.60745,-0.04442 7.67196,2.28e-4 2.06451,0.04464 0.30128,0.08107 -3.9183,0.08094 -4.21958,-1.26e-4 -5.90872,-0.03665 -3.75366,-0.08117 z m 73.71817,-10.053384 -1.44599,-1.521164 1.52116,1.445989 c 0.83664,0.795295 1.52117,1.479818 1.52117,1.521164 0,0.196364 -0.25297,-0.03278 -1.59634,-1.445989 z m -16.00335,-5.15873 -1.84476,-1.91799 1.91799,1.844757 c 1.0549,1.014616 1.91799,1.877712 1.91799,1.91799 0,0.194049 -0.27781,-0.06333 -1.99122,-1.844757 z m 2.91005,-7.936508 -1.84476,-1.91799 1.91799,1.844757 c 1.78143,1.713411 2.03881,1.991222 1.84476,1.991222 -0.0403,0 -0.90337,-0.863095 -1.91799,-1.917989 z m -46.85988,-2.18254 c 9.6e-4,-1.164021 0.0475,-1.607303 0.10335,-0.98507 0.0559,0.622232 0.0551,1.574613 -0.002,2.116402 -0.0568,0.541789 -0.10257,0.03269 -0.1016,-1.131332 z m 88.88287,-8.597883 c 0,-0.945768 0.048,-1.332672 0.1067,-0.859789 0.0587,0.472884 0.0587,1.246693 0,1.719577 -0.0587,0.472884 -0.1067,0.08598 -0.1067,-0.859788 z m -81.25003,-1.719577 c 0.005,-0.436508 0.0647,-0.583052 0.13175,-0.325653 0.0671,0.257399 0.0627,0.614542 -0.01,0.793651 -0.0725,0.179109 -0.12735,-0.03149 -0.12195,-0.467998 z m 32.53393,-17.526398 c 7.95509,-0.03888 21.05033,-0.03889 29.10052,-2e-5 8.0502,0.03887 1.54149,0.07068 -14.46381,0.07069 -16.00529,1.1e-5 -22.59181,-0.03179 -14.63671,-0.07067 z"
         id="path571539" /><path
         style="fill:#000000;fill-opacity:1"
         d="m -391.6326,20.841801 c 0.32738,-0.06306 0.8631,-0.06306 1.19048,0 0.32738,0.06306 0.0595,0.114648 -0.59524,0.114648 -0.65476,0 -0.92262,-0.05159 -0.59524,-0.114648 z m 51.19411,-0.0031 c 0.40214,-0.06081 0.99737,-0.05918 1.32276,0.0036 0.32538,0.0628 -0.004,0.112547 -0.73116,0.11056 -0.72751,-0.002 -0.99373,-0.05336 -0.5916,-0.114171 z m -42.7285,-7.6805 c 9.49405,-0.0385 25.02976,-0.0385 34.52381,0 9.49405,0.0385 1.72619,0.07 -17.26191,0.07 -18.98809,0 -26.75595,-0.0315 -17.2619,-0.07 z m 55.62169,-2.579399 c 0.34173,-0.363756 0.68086,-0.6613755 0.75361,-0.6613755 0.0728,0 -0.14733,0.2976195 -0.48906,0.6613755 -0.34173,0.363757 -0.68085,0.661376 -0.7536,0.661376 -0.0727,0 0.14732,-0.297619 0.48905,-0.661376 z m 2.17778,-6.4814813 c 0,-0.5092593 0.0544,-0.7175926 0.12098,-0.462963 0.0666,0.2546296 0.0666,0.6712963 0,0.9259259 -0.0665,0.2546297 -0.12098,0.046296 -0.12098,-0.4629629 z m -51.68242,-9.1931217 c -0.32907,-0.4195914 -0.31971,-0.4289487 0.0999,-0.099882 0.44067,0.3456005 0.58081,0.5628453 0.36308,0.5628453 -0.0549,0 -0.26327,-0.2083333 -0.46296,-0.4629629 z m 7.44115,-2.0007695 c 0,-0.045529 0.3869,-0.4324339 0.85979,-0.8597884 l 0.85979,-0.7770083 -0.77701,0.8597884 c -0.72428,0.8014433 -0.94257,0.9813893 -0.94257,0.7770083 z m -44.62972,-2.8272728 c 0,-0.8002647 0.0496,-1.1276457 0.11021,-0.7275137 0.0606,0.400133 0.0606,1.0548946 0,1.4550269 -0.0606,0.4001323 -0.11021,0.072751 -0.11021,-0.7275132 z m 39.33871,-2.5132277 c 0.4936,-0.509259 0.95697,-0.925926 1.02972,-0.925926 0.0727,0 -0.27157,0.416667 -0.76517,0.925926 -0.49359,0.509259 -0.95696,0.925926 -1.02971,0.925926 -0.0727,0 0.27157,-0.416667 0.76516,-0.925926 z m 9.65609,-9.656085 c 1.30346,-1.309523 2.42944,-2.380952 2.5022,-2.380952 0.0727,0 -0.93419,1.071429 -2.23765,2.380952 -1.30346,1.309524 -2.42945,2.380953 -2.5022,2.380953 -0.0727,0 0.93419,-1.071429 2.23765,-2.380953 z m 21.03174,-10.449735 c 0.34174,-0.363757 0.68086,-0.661376 0.75361,-0.661376 0.0728,0 -0.14732,0.297619 -0.48905,0.661376 -0.34174,0.363757 -0.68086,0.661376 -0.75361,0.661376 -0.0727,0 0.14732,-0.297619 0.48905,-0.661376 z m -75.19841,0.198638 c 3.52844,-0.04167 9.30225,-0.04167 12.83069,0 3.52844,0.04167 0.64153,0.07577 -6.41534,0.07577 -7.05688,0 -9.94379,-0.0341 -6.41535,-0.07577 z m 21.69312,0.0011 c 1.3459,-0.04801 3.54828,-0.04801 4.89418,0 1.3459,0.04801 0.24471,0.0873 -2.44709,0.0873 -2.6918,0 -3.79299,-0.03928 -2.44709,-0.0873 z m 53.22072,-7.673262 -0.64135,-0.727513 0.72751,0.641353 c 0.40013,0.352744 0.72752,0.680125 0.72752,0.727513 0,0.20748 -0.21424,0.03862 -0.81368,-0.641353 z m -64.4641,1.53e-4 c 4.3287,-0.04079 11.41203,-0.04079 15.74074,0 4.3287,0.04079 0.78704,0.07416 -7.87037,0.07416 -8.65741,0 -12.19908,-0.03337 -7.87037,-0.07416 z m 45.56586,-8.333486 -4.49443,-4.563492 4.56349,4.494436 c 4.23974,4.175587 4.68308,4.632548 4.49443,4.632548 -0.038,0 -2.09155,-2.053572 -4.56349,-4.563492 z m 3.04241,-7.804233 -4.62679,-4.695767 4.69577,4.626794 c 4.3627,4.298627 4.81532,4.76474 4.62679,4.76474 -0.0379,0 -2.15103,-2.113095 -4.69577,-4.695767 z m -53.88975,-6.018519 c 0.002,-0.727513 0.0534,-0.993733 0.11417,-0.5916 0.0608,0.402133 0.0592,0.997371 -0.004,1.322751 -0.0628,0.32538 -0.11255,-0.0036 -0.11056,-0.731151 z m 88.8746,-14.153439 c 0,-0.509259 0.0544,-0.717592 0.12098,-0.462963 0.0666,0.25463 0.0666,0.671297 0,0.925926 -0.0665,0.25463 -0.12098,0.0463 -0.12098,-0.462963 z m -81.22673,-0.661375 c 0.005,-0.436508 0.0647,-0.583052 0.13175,-0.325653 0.0671,0.257398 0.0627,0.614541 -0.01,0.79365 -0.0725,0.17911 -0.12735,-0.03149 -0.12195,-0.467997 z m -7.4381,-2.402999 c 0.0127,-0.308186 0.0754,-0.370872 0.15983,-0.159832 0.0764,0.190972 0.067,0.419147 -0.0209,0.507055 -0.0879,0.08791 -0.15044,-0.06834 -0.13895,-0.347223 z m 86.20248,-3.747795 -0.64135,-0.727513 0.72751,0.641353 c 0.40013,0.352744 0.72751,0.680125 0.72751,0.727513 0,0.20748 -0.21423,0.03862 -0.81367,-0.641353 z m -55.18426,-2.380926 c 9.57812,-0.03849 25.17336,-0.03848 34.65608,1.4e-5 9.48273,0.0385 1.64608,0.06999 -17.41476,0.06998 -19.06085,-8e-6 -26.81944,-0.03151 -17.24132,-0.07 z"
         id="path571538" /><path
         style="fill:#000000;fill-opacity:1"
         d="m -395.79927,20.782006 c -5.20742,-0.151786 -6.14879,-0.246159 -7.52173,-0.754067 -4.44526,-1.644479 -7.82895,-4.931298 -9.85615,-9.573979 l -0.86962,-1.991595 -0.003,-9.8544973 -0.003,-9.8544977 h 3.7037 3.7037 l 0.002,7.8703707 c 8.5e-4,4.32870371 0.11467,8.5611627 0.25295,9.4054644 0.48095,2.9365687 1.71311,4.6377459 4.62414,6.3843209 l 1.57174,0.943019 h 34.28901 34.28902 l 1.38833,-0.691835 c 1.58065,-0.787669 3.70682,-2.7463192 4.43794,-4.0882677 0.47738,-0.8762196 0.49455,-2.427498 0.49455,-44.6907973 0,-41.018964 -0.0289,-43.835914 -0.45801,-44.620135 -0.73825,-1.349247 -2.92066,-3.42142 -4.38489,-4.163402 l -1.35644,-0.687362 h -34.29716 -34.29716 l -1.57696,0.840511 c -1.66762,0.888831 -3.31912,2.545205 -4.02875,4.04065 -0.7908,1.666487 -0.94984,3.623685 -0.94984,11.689339 v 8.032675 h -3.72791 -3.7279 l 0.10464,-9.986773 c 0.10033,-9.574773 0.12898,-10.04839 0.69428,-11.480376 1.72326,-4.365244 5.37255,-8.019861 9.79292,-9.807224 l 1.4936,-0.603934 35.82238,-0.07346 c 32.70131,-0.06706 35.93973,-0.03541 37.16931,0.363263 5.26912,1.708442 9.20097,5.583556 11.01497,10.856034 0.5051,1.468102 0.51715,2.532055 0.51715,45.650148 V 8.0826083 l -0.80081,2.0765767 c -1.52085,3.943705 -4.24859,7.0343 -7.94931,9.006763 -3.19966,1.705397 -1.90815,1.64057 -34.2393,1.718645 -16.15079,0.039 -32.04365,-0.0072 -35.31746,-0.102587 z m 20.2381,-24.994679 c -1.91498,-0.8511173 -2.8944,-3.1084098 -2.08698,-4.8099086 0.23981,-0.5053755 5.36427,-5.8851494 11.38769,-11.9550544 l 10.95167,-11.036189 -6.42249,-0.07228 c -3.53237,-0.03975 -23.80344,-0.158803 -45.04682,-0.26455 -37.32783,-0.185813 -38.64922,-0.209126 -39.36538,-0.694516 -1.9932,-1.350929 -2.03334,-4.789359 -0.0709,-6.075192 0.40351,-0.264387 1.43512,-0.488385 2.59289,-0.563002 1.05752,-0.06816 21.31865,-0.186913 45.02474,-0.263905 23.70608,-0.07699 43.14675,-0.184763 43.20147,-0.239491 0.0547,-0.05473 -4.96616,-5.227201 -11.15752,-11.494386 l -11.25704,-11.39488 v -1.476496 c 0,-1.352641 0.0872,-1.56995 1.03922,-2.59059 1.00323,-1.075514 1.09552,-1.114095 2.6651,-1.114095 h 1.62589 l 15.01817,15.080738 c 16.42843,16.496869 15.75012,15.679628 15.09154,18.182539 -0.26395,1.00312 -1.92197,2.750462 -14.94893,15.754226 -9.50612,9.4891962 -14.97757,14.7619772 -15.5789,15.0132275 -1.12588,0.4704217 -1.63017,0.4730362 -2.66341,0.013809 z"
         id="path571537" /></g><rect
       style="fill:none;stroke:none;stroke-width:0.190799;stroke-linecap:square;stroke-miterlimit:2.9;paint-order:markers fill stroke"
       id="rect571564"
       width="199.8092"
       height="199.8092"
       x="-734.07385"
       y="506.28012"
       ry="7.5305705"
       inkscape:export-filename="icon_primeira_saida.svg"
       inkscape:export-xdpi="96"
       inkscape:export-ydpi="96" /></g></svg>
