<?xml version="1.0" encoding="UTF-8" standalone="no"?>
<!-- Created with Inkscape (http://www.inkscape.org/) -->

<svg
   width="199.80917mm"
   height="199.80919mm"
   viewBox="0 0 199.80917 199.80919"
   version="1.1"
   id="svg1"
   xml:space="preserve"
   sodipodi:docname="icon_segunda_entrada.svg"
   inkscape:version="1.3 (0e150ed6c4, 2023-07-21)"
   xmlns:inkscape="http://www.inkscape.org/namespaces/inkscape"
   xmlns:sodipodi="http://sodipodi.sourceforge.net/DTD/sodipodi-0.dtd"
   xmlns="http://www.w3.org/2000/svg"
   xmlns:svg="http://www.w3.org/2000/svg"><sodipodi:namedview
     id="namedview1"
     pagecolor="#ffffff"
     bordercolor="#000000"
     borderopacity="0.25"
     inkscape:showpageshadow="2"
     inkscape:pageopacity="0.0"
     inkscape:pagecheckerboard="0"
     inkscape:deskcolor="#d1d1d1"
     inkscape:document-units="mm"
     inkscape:zoom="0.53827917"
     inkscape:cx="411.49651"
     inkscape:cy="662.29573"
     inkscape:window-width="1920"
     inkscape:window-height="1009"
     inkscape:window-x="-8"
     inkscape:window-y="-8"
     inkscape:window-maximized="1"
     inkscape:current-layer="layer1" /><defs
     id="defs1" /><g
     inkscape:label="Camada 1"
     inkscape:groupmode="layer"
     id="layer1"
     transform="translate(753.00112,-470.1667)"><g
       id="g571550"
       transform="matrix(1.430052,0,0,1.430052,-687.76496,803.85947)"
       style="fill:#000000"><path
         style="fill:#000000;fill-opacity:1"
         d="m -13.29086,-108.84684 c -2.861609,-0.87047 -4.427878,-3.20343 -4.177518,-6.22245 0.15639,-1.88586 0.942605,-3.27589 2.47638,-4.37826 l 1.288444,-0.92604 28.583765,-0.15501 c 24.915405,-0.13511 28.855412,-0.21015 30.700432,-0.58466 12.667139,-2.57124 22.701647,-12.04105 25.99069,-24.52804 0.53906,-2.04656 0.686188,-3.34919 0.791926,-7.01146 0.190439,-6.59592 -0.464768,-9.84432 -3.110378,-15.42069 -4.179302,-8.80906 -11.905647,-15.20452 -21.555572,-17.84259 l -3.175,-0.86796 -29.83177,-0.0727 c -16.4074731,-0.04 -29.83177,0.0156 -29.83177,0.12365 0,0.10799 2.250793,2.46243 5.001761,5.23208 5.2000743,5.2354 5.5786213,5.7746 5.5786213,7.94615 0,3.1142 -2.7419905,5.93206 -5.7871853,5.94732 -2.748758,0.0138 -2.536941,0.18299 -13.875948,-11.0854 -7.442961,-7.39661 -10.726129,-10.83887 -11.178645,-11.72031 -0.820735,-1.59869 -0.852684,-3.50793 -0.08445,-5.04642 0.673272,-1.34831 20.212522,-21.07904 21.801052,-22.01469 2.931236,-1.72653 6.7213239,-0.80105 8.3442066,2.0375 0.7991401,1.39776 0.9079278,4.34074 0.2082646,5.63409 -0.2361686,0.43656 -2.6142767,2.9964 -5.2846842,5.68854 l -4.855287,4.89479 29.633332,0.14522 c 30.801019,0.15095 30.112699,0.12539 35.170422,1.30612 5.711019,1.33325 11.587915,3.9867 16.267745,7.34497 5.615036,4.02939 11.022768,10.43063 14.250216,16.86827 0.996001,1.98668 3.007407,7.89528 3.506287,10.29988 2.378696,11.46532 0.3714,23.01801 -5.772354,33.22192 -4.521394,7.50941 -12.24371,14.17204 -20.564046,17.74218 -4.518812,1.93895 -8.02998,2.84955 -13.148363,3.40993 -2.975108,0.32573 -56.29765,0.35741 -57.360577,0.0341 z"
         id="path571551" /></g><rect
       style="fill:none;stroke:none;stroke-width:0.190799;stroke-linecap:square;stroke-miterlimit:2.9;paint-order:markers fill stroke"
       id="rect571564"
       width="199.8092"
       height="199.8092"
       x="-753.00116"
       y="470.16669"
       ry="7.5305705"
       inkscape:export-filename="icon_primeira_saida.svg"
       inkscape:export-xdpi="96"
       inkscape:export-ydpi="96" /></g></svg>
